<svg id="Layer_1" data-name="Layer 1" xmlns="http://www.w3.org/2000/svg" viewBox="0 0 15 15"><defs><style>.cls-1{fill:#101622;}.cls-2{fill:#fff;fill-rule:evenodd;}</style></defs><circle class="cls-1" cx="7.5" cy="7.5" r="7.5"/><path class="cls-2" d="M7.5,2.51a.35.35,0,0,1,.33.33v5L9.45,6.25a.33.33,0,0,1,.47.45h0L7.73,8.9a.34.34,0,0,1-.46,0L5.09,6.71a.32.32,0,0,1,0-.45h0a.32.32,0,0,1,.46,0L7.17,7.87v-5A.35.35,0,0,1,7.5,2.51ZM3.86,9a.37.37,0,0,1,.37.35h0v1.09a.73.73,0,0,0,.72.73H10a.73.73,0,0,0,.73-.73V9.38A.37.37,0,0,1,11.14,9a.35.35,0,0,1,.36.35h0v1.1A1.46,1.46,0,0,1,10,11.94H5A1.47,1.47,0,0,1,3.5,10.48V9.38A.36.36,0,0,1,3.83,9Z"/></svg>