<svg id="Layer_1" data-name="Layer 1" xmlns="http://www.w3.org/2000/svg" viewBox="0 0 15 15"><defs><style>.cls-1{fill:#101622;}.cls-2{fill:#fff;fill-rule:evenodd;}</style></defs><circle class="cls-1" cx="7.5" cy="7.5" r="7.5"/><path class="cls-2" d="M6.06,3.11a.37.37,0,0,0,0,.73H9a.37.37,0,0,0,.31-.42A.36.36,0,0,0,9,3.11ZM4.23,4.94a.37.37,0,0,1,.36-.37h5.87a.37.37,0,0,1,0,.73h-.37v5.86a.74.74,0,0,1-.74.73H5.69A.73.73,0,0,1,5,11.16H5V5.3H4.59a.36.36,0,0,1-.36-.36Zm1.46.36H9.35v5.86H5.69Z"/></svg>